<?xml version="1.0" encoding="utf-8"?>
<svg width="99px" height="99px" viewBox="0 0 99 99" version="1.1" xmlns:xlink="http://www.w3.org/1999/xlink" xmlns="http://www.w3.org/2000/svg">
  <defs>
    <path d="M99 0L99 0L99 99L0 99L0 0L99 0Z" id="path_1" />
    <clipPath id="clip_1">
      <use xlink:href="#path_1" clip-rule="evenodd" fill-rule="evenodd" />
    </clipPath>
  </defs>
  <g id="Frame 2" clip-path="url(#clip_1)">
    <path d="M99 0L99 0L99 99L0 99L0 0L99 0Z" id="Frame-2" fill="none" stroke="none" />
    <path d="M33 45L33 39C33 37.3431 33.5858 35.9289 34.7574 34.7574C35.9289 33.5858 37.3431 33 39 33L60 33C61.6569 33 63.0711 33.5858 64.2426 34.7574C65.4142 35.9289 66 37.3431 66 39L66 60C66 61.6569 65.4142 63.0711 64.2426 64.2426C63.0711 65.4142 61.6569 66 60 66L39 66C37.3431 66 35.9289 65.4142 34.7574 64.2426C33.5858 63.0711 33 61.6569 33 60L33 45Z" id="Line" fill="#FFFFFF" fill-rule="evenodd" stroke="none" />
    <path d="M0 78L0 72C0 70.3431 0.585786 68.9289 1.75736 67.7574C2.92893 66.5858 4.34315 66 6 66L27 66C28.6569 66 30.0711 66.5858 31.2426 67.7574C32.4142 68.9289 33 70.3431 33 72L33 93C33 94.6569 32.4142 96.0711 31.2426 97.2426C30.0711 98.4142 28.6569 99 27 99L6 99C4.34315 99 2.92893 98.4142 1.75736 97.2426C0.585786 96.0711 0 94.6569 0 93L0 78Z" id="Line" fill="#FFFFFF" fill-rule="evenodd" stroke="none" />
    <path d="M66 78L66 72C66 70.3431 66.5858 68.9289 67.7574 67.7574C68.9289 66.5858 70.3431 66 72 66L93 66C94.6569 66 96.0711 66.5858 97.2426 67.7574C98.4142 68.9289 99 70.3431 99 72L99 93C99 94.6569 98.4142 96.0711 97.2426 97.2426C96.0711 98.4142 94.6569 99 93 99L72 99C70.3431 99 68.9289 98.4142 67.7574 97.2426C66.5858 96.0711 66 94.6569 66 93L66 78Z" id="Line" fill="#FFFFFF" fill-rule="evenodd" stroke="none" />
    <path d="M66 12L66 6C66 4.34315 66.5858 2.92893 67.7574 1.75736C68.9289 0.585786 70.3431 0 72 0L93 0C94.6569 0 96.0711 0.585786 97.2426 1.75736C98.4142 2.92893 99 4.34315 99 6L99 27C99 28.6569 98.4142 30.0711 97.2426 31.2426C96.0711 32.4142 94.6569 33 93 33L72 33C70.3431 33 68.9289 32.4142 67.7574 31.2426C66.5858 30.0711 66 28.6569 66 27L66 12Z" id="Line" fill="#FFFFFF" fill-rule="evenodd" stroke="none" />
  </g>
</svg>